<svg xmlns="http://www.w3.org/2000/svg" viewBox="0 0 474.15 475.14"><defs><style>.cls-1,.cls-2{fill:none;stroke:#fff;stroke-miterlimit:10;stroke-width:12px;}.cls-2{stroke-linecap:round;}</style></defs><title>Asset 1</title><g id="Layer_2" data-name="Layer 2"><g id="apollo"><path class="cls-1" d="M465.45,7.87C453.39,5.93,373-4.19,293.12,54.72a2.11,2.11,0,0,0-.23.19L101.75,244.07a2,2,0,0,0,0,2.82L226.25,374a2,2,0,0,0,2.85,0L425.61,176.86l.11-.11c1.75-2.07,50-60,41.41-167.06A2,2,0,0,0,465.45,7.87Z"/><path class="cls-1" d="M368.11,16.72s5.94,85,90.08,92.53"/><path class="cls-2" d="M121.86,267.45,90.94,286.67a2,2,0,0,0-.39,3.08l92,95.34a2,2,0,0,0,3.15-.37L205,352.32"/><path class="cls-1" d="M206,139l-87.92,7.44a2,2,0,0,0-1.26.59L35.64,229.61A2,2,0,0,0,36.81,233l68,9"/><path class="cls-1" d="M336.16,269,328.72,357c0,1.48-.25,1.92-.59,2.26l-82.61,81.17a2,2,0,0,1-3.38-1.17l-9-68"/><circle class="cls-1" cx="305.77" cy="168.4" r="47.83"/><line class="cls-2" x1="6" y1="421.47" x2="48.17" y2="379.31"/><line class="cls-2" x1="61" y1="367.14" x2="66.67" y2="361.47"/><line class="cls-2" x1="80.33" y1="347.47" x2="90.16" y2="337.64"/><line class="cls-2" x1="30.67" y1="446.81" x2="115.17" y2="362.31"/><line class="cls-2" x1="56.33" y1="469.14" x2="68.33" y2="457.14"/><line class="cls-2" x1="80.33" y1="445.81" x2="88.17" y2="437.97"/><line class="cls-2" x1="99.67" y1="426.81" x2="142.39" y2="384.09"/></g></g></svg>